<?xml version="1.0" standalone="no"?>
<!DOCTYPE svg PUBLIC "-//W3C//DTD SVG 1.1//EN" "http://www.w3.org/Graphics/SVG/1.1/DTD/svg11.dtd">
<svg xmlns="http://www.w3.org/2000/svg">
<metadata>Copyright (C) 2019 by original authors @ fontello.com</metadata>
<defs>
<font id="fontello" horiz-adv-x="1000" >
<font-face font-family="fontello" font-weight="400" font-stretch="normal" units-per-em="1000" ascent="850" descent="-150" />
<missing-glyph horiz-adv-x="1000" />
<glyph glyph-name="concept" unicode="&#xe800;" d="M200 80c0-15 15-30 30-30h240v270h-270v-240z m0 540v-240h270v270h-240c-15 0-30-15-30-30z m570 30h-240v-270h270v240c0 15-15 30-30 30z m-240-600h240c15 0 30 15 30 30v240h-270v-270z" horiz-adv-x="1000" />

<glyph glyph-name="data-structure" unicode="&#xe801;" d="M750 650h-500c-27 0-50-23-50-50v-500c0-28 23-50 50-50h500c28 0 50 22 50 50v500c0 28-22 50-50 50z" horiz-adv-x="1000" />

<glyph glyph-name="data-view" unicode="&#xe802;" d="M750 650h-500c-25 0-50-25-50-50v-500c0-25 25-50 50-50h500c25 0 50 25 50 50v500c0 25-25 50-50 50z m-15-480c0-30-25-50-50-50h-150c-30 0-50 20-50 50v150c0 25 20 50 50 50h150c25 0 50-25 50-50v-150z" horiz-adv-x="1000" />

<glyph glyph-name="api" unicode="&#xe803;" d="M950 800h-900c-30 0-50-25-50-50v-800c0-25 20-50 50-50h900c25 0 50 25 50 50v800c0 25-25 50-50 50z m-50-800h-800v550h800v-550z m-695 175l115 245c0 0 5 5 5 5h5c5 0 5 0 5-5l115-245c0-5 0-10-5-10h-45c-5 0-10 0-15 10l-15 30h-100l-15-30c0-5-5-10-15-10h-30c-5 0-10 5-5 10z m150 80l-30 60h0l-25-60h55z m130 160c0 5 5 5 5 5h90c45 0 80-35 80-80 0-45-35-80-80-80h-40v-85c0-5-5-5-5-5h-45c-5 0-5 5-5 5v240z m90-105c15 0 30 10 30 30 0 15-15 25-30 25h-35v-55h35z m125 105c0 5 5 5 5 5h45c5 0 5-5 5-5v-240c0-5-5-5-5-5h-45c-5 0-5 5-5 5v240z" horiz-adv-x="1000" />

<glyph glyph-name="fullscreen" unicode="&#xe804;" d="M300 750c30 0 50 25 50 50s-20 50-50 50h-250c-30 0-50-25-50-50v-250c0-30 20-50 50-50s50 20 50 50v200h200z m-200-600c0 30-25 50-50 50s-50-20-50-50v-250c0-25 20-50 50-50h250c30 0 50 25 50 50s-20 50-50 50h-200v200z m850 700h-250c-30 0-50-20-50-50s20-50 50-50h200v-200c0-30 25-50 50-50s50 20 50 50v250c0 25-25 50-50 50z m0-650c-25 0-50-20-50-50v-200h-200c-30 0-50-25-50-50s20-50 50-50h250c25 0 50 25 50 50v250c0 25-25 50-50 50z" horiz-adv-x="1000" />

<glyph glyph-name="fullscreen-exit" unicode="&#xe805;" d="M50 600c-30 0-50-25-50-50 0-25 20-50 50-50h250c30 0 50 25 50 50v250c0 30-20 50-50 50s-50-20-50-50v-200h-200z m200-700c0-30 25-50 50-50s50 20 50 50v250c0 25-20 50-50 50h-250c-30 0-50-25-50-50 0-25 20-50 50-50h200v-200z m450 600h250c30 0 50 20 50 50s-20 50-50 50h-200v200c0 30-25 50-50 50-25 0-50-20-50-50v-250c0-25 25-50 50-50z m0-650c25 0 50 20 50 50v200h200c30 0 50 25 50 50s-20 50-50 50h-250c-25 0-50-25-50-50v-250c0-25 25-50 50-50z" horiz-adv-x="1000" />

<glyph glyph-name="settings" unicode="&#xe806;" d="M950 650c25 0 50 25 50 50s-25 50-50 50h-200c-30 0-50-20-50-50v0c0-30 20-50 50-50h200z m-900 100c-25 0-50-25-50-50 0-25 25-50 50-50h250c30 0 50 20 50 50v0c0 30-20 50-50 50h-250z m900-450c25 0 50 20 50 50s-25 50-50 50h-350c-30 0-50-20-50-50v0c0-30 20-50 50-50h350z m0-350c25 0 50 25 50 50s-25 50-50 50h-100c-30 0-50-20-50-50v0c0-30 20-50 50-50h100z m-900 450c-25 0-50-20-50-50s25-50 50-50h100c30 0 50 20 50 50v0c0 30-20 50-50 50h-100z m700-400l0 0c0 55-45 100-100 100h-50c-55 0-100-45-100-100v0c0-55 45-100 100-100h50c55 0 100 45 100 100z m-700 50c-25 0-50-25-50-50 0-25 25-50 50-50h350c30 0 50 20 50 50v0c0 30-20 50-50 50h-350z m600 650l0 0c0 55-45 100-100 100h-50c-55 0-100-45-100-100v0c0-55 45-100 100-100h50c55 0 100 45 100 100z m-150-350l0 0c0 55-45 100-100 100h-50c-55 0-100-45-100-100v0c0-55 45-100 100-100h50c55 0 100 45 100 100z" horiz-adv-x="1000" />

<glyph glyph-name="import" unicode="&#xe807;" d="M465 65c9-9 21-15 35-15s27 6 36 15l250 250c9 9 14 21 14 35 0 28-22 50-50 50-14 0-26-5-35-14l-165-165v579c0 28-22 50-50 50s-50-22-50-50v-579l-164 165c-9 9-22 14-36 14-27 0-50-22-50-50 0-14 6-26 15-35l250-250z m485 85c-27 0-50-22-50-50v-150h-800v150c0 28-22 50-50 50s-50-22-50-50v-200c0-28 23-50 50-50h900c28 0 50 22 50 50v200c0 28-22 50-50 50z" horiz-adv-x="1000" />

<glyph glyph-name="share-variant" unicode="&#xe808;" d="M750 180c-32 0-60-12-82-32l-297 173c2 9 4 19 4 29 0 10-2 20-4 29l294 171c23-20 52-33 85-33a125 125 0 0 1 125 125 125 125 0 0 1-125 125 125 125 0 0 1-125-125c0-10 2-20 4-29l-294-172c-22 21-52 34-85 34a125 125 0 0 1-125-125 125 125 0 0 1 125-125c33 0 63 13 85 34l297-173c-2-9-4-18-4-28 0-67 55-121 122-121 67 0 122 54 122 121a122 122 0 0 1-122 122z" horiz-adv-x="1000" />

<glyph glyph-name="asterisk" unicode="&#xe809;" d="M827 264q26-14 33-43t-7-55l-35-61q-15-26-44-33t-54 7l-149 85v-171q0-29-21-50t-50-22h-71q-29 0-51 22t-21 50v171l-148-85q-26-15-55-7t-43 33l-36 61q-14 26-7 55t34 43l148 86-148 86q-26 14-34 43t7 55l36 61q15 26 43 33t55-7l148-85v171q0 29 21 50t51 22h71q29 0 50-22t21-50v-171l149 85q26 15 54 7t44-33l35-61q15-26 7-55t-33-43l-148-86z" horiz-adv-x="928.6" />

<glyph glyph-name="cancel" unicode="&#xe80a;" d="M724 112q0-22-15-38l-76-76q-16-15-38-15t-38 15l-164 165-164-165q-16-15-38-15t-38 15l-76 76q-16 16-16 38t16 38l164 164-164 164q-16 16-16 38t16 38l76 76q16 16 38 16t38-16l164-164 164 164q16 16 38 16t38-16l76-76q15-15 15-38t-15-38l-164-164 164-164q15-15 15-38z" horiz-adv-x="785.7" />

<glyph glyph-name="more-v" unicode="&#xe80b;" d="M375-25c0 69 56 125 125 125s125-56 125-125-56-125-125-125-125 56-125 125z m0 750c0 69 56 125 125 125 69 0 125-56 125-125s-56-125-125-125-125 56-125 125z m0-375c0 69 56 125 125 125s125-56 125-125-56-125-125-125-125 56-125 125z" horiz-adv-x="1000" />

<glyph glyph-name="eye-open" unicode="&#xe80c;" d="M500 412c-34 0-62-28-62-62 0-35 28-63 62-63 35 0 63 28 63 63 0 34-28 62-63 62z m499-60c0 0 0 0 0 1 0 0 0 0 0 0 0 1 0 1 0 2 0 0 0 0 0 1 0 0 0 0 0 0-1 9-5 16-10 23-32 42-70 78-109 112-83 74-178 135-282 159-62 16-122 16-183 4-56-11-109-34-159-62-78-44-150-105-213-173-11-14-22-26-33-40-13-18-13-40 0-58 32-42 70-79 109-113 83-73 178-135 283-159 60-14 121-15 182-3 56 12 109 34 160 62 78 45 149 106 212 174 11 13 23 26 33 40 6 6 10 14 11 22 0 0 0 0 0 0 0 1 0 1 0 1 0 1 0 1 0 2 0 0 0 0 0 0 0 1 0 1 0 1 0 1 0 2 0 2 0 1-1 1-1 2z m-499-190c-103 0-187 84-187 188 0 104 84 188 187 188 104 0 187-84 187-188 0-104-83-188-187-188z" horiz-adv-x="1000" />

<glyph glyph-name="refresh" unicode="&#xe80d;" d="M937 413c-34 0-63-28-63-62 0-207-168-375-375-375-110 0-210 48-278 125h91c34 0 62 28 62 62s-28 63-62 63h-250c-34 0-63-28-63-63v-250c0-34 29-62 63-62s62 28 62 62v109c92-105 225-171 375-171 277 0 500 223 500 500 0 34-28 62-62 62z m0 438c-34 0-63-28-63-63v-109c-91 105-225 172-375 172-276 0-500-224-500-500 0-35 29-63 63-63s62 28 62 63c0 207 169 375 375 375 111 0 210-49 279-125h-91c-34 0-63-28-63-63s29-62 63-62h250c34 0 62 28 62 62v250c0 35-28 63-62 63z" horiz-adv-x="1000" />

<glyph glyph-name="bar" unicode="&#xe80e;" d="M286 350v-286h-143v286h143z m214 286v-572h-143v572h143z m571-643v-72h-1142v858h71v-786h1071z m-357 500v-429h-143v429h143z m215 214v-643h-143v643h143z" horiz-adv-x="1000" />

<glyph glyph-name="row" unicode="&#xe80f;" d="M714 493h-572v143h572v-143z m357-500v-72h-1142v858h71v-786h1071z m-500 286h-429v142h429v-142z m214-215h-643v143h643v-143z" horiz-adv-x="1000" />

<glyph glyph-name="log-in" unicode="&#xe810;" d="M688 350c0 18-7 33-19 44l-187 188c-11 11-27 18-44 18-35 0-63-28-63-62 0-18 7-34 18-45l81-80h-411c-35 0-63-29-63-63 0-34 28-62 63-62h411l-80-81c-12-11-19-27-19-44 0-35 28-63 63-63 17 0 33 7 44 18l187 188c12 11 19 27 19 44z m250 500h-375c-35 0-63-28-63-62 0-35 28-63 63-63h312v-750h-312c-35 0-63-28-63-63 0-34 28-62 63-62h375c34 0 62 28 62 62v876c0 34-28 62-62 62z" horiz-adv-x="1000" />

<glyph glyph-name="log-out" unicode="&#xe811;" d="M438-25h-313v750h313c34 0 62 28 62 63s-28 62-62 62h-375c-35 0-63-28-63-62v-876c0-34 28-62 63-62h375c34 0 62 28 62 62s-28 63-62 63z m544 419l-188 188c-11 11-26 18-44 18-34 0-62-28-62-62 0-18 6-34 18-45l81-80h-412c-34 0-62-29-62-63s28-62 62-62h412l-81-81c-12-11-18-27-18-44 0-35 28-63 62-63 18 0 33 7 44 18l188 188c11 11 18 27 18 44 0 18-7 33-18 44z" horiz-adv-x="1000" />

<glyph glyph-name="upload" unicode="&#xe812;" d="M500 850c-276 0-500-224-500-500s224-500 500-500 500 224 500 500-224 500-500 500z m188-500c-18 0-34 7-45 18l-80 81v-349c0-34-29-62-63-62s-62 28-62 62v349l-81-81c-11-11-27-18-44-18-35 0-63 28-63 63 0 17 7 33 18 44l188 187c11 12 27 19 44 19s33-7 44-19l188-187c11-11 18-27 18-44 0-35-28-63-62-63z" horiz-adv-x="1000" />

<glyph glyph-name="hsymbol2" unicode="&#xe814;" d="M112 202c0-49 40-89 89-89 49 0 89 40 89 89 0 49-40 89-89 89-49 0-89-40-89-89z m162 0c0-40-33-73-73-73-41 0-73 33-73 73 0 40 32 73 73 73 40 0 73-33 73-73z m457 89c49 0 89-40 89-89 0-49-40-89-89-89s-89 40-89 89c0 49 40 89 89 89z m340-298v-72h-1142v858h71v-786h1071z m-761 193v30h304v-30h-304z m96 219c0-49 40-89 89-89 50 0 90 40 90 89 0 49-40 89-90 89-49 0-89-40-89-89z m163 0c0-40-33-73-74-73-40 0-73 33-73 73 0 41 33 73 73 73 41 0 74-32 74-73z m336 89c50 0 89-40 89-89 0-49-39-89-89-89s-89 40-89 89c0 49 40 89 89 89z m-300-105v30h181v-30h-181z m-399 244c0-49 40-89 89-89 49 0 89 40 89 89 0 49-40 89-89 89-49 0-89-40-89-89z m162 0c0-40-33-73-73-73-40 0-73 33-73 73 0 40 33 73 73 73 40 0 73-33 73-73z m257 89c49 0 89-40 89-89 0-49-40-89-89-89s-89 40-89 89c0 49 39 89 89 89z m-221-105v30h102v-30h-102z" horiz-adv-x="1000" />

<glyph glyph-name="vsymbol2" unicode="&#xe815;" d="M875 55c50 0 89 40 89 89 0 49-39 89-89 89-49 0-89-40-89-89 0-49 40-89 89-89z m0 162c41 0 73-32 73-73 0-40-32-73-73-73-40 0-73 33-73 73 0 41 33 73 73 73z m-89 458c0 49 40 89 89 89 50 0 89-40 89-89s-39-89-89-89c-49 0-89 40-89 89z m285-682v-72h-1142v858h71v-786h1071z m-180 261h-30v304h30v-304z m-448 114c49 0 89 40 89 89 0 49-40 89-89 89-50 0-89-40-89-89 0-49 39-89 89-89z m0 162c40 0 73-33 73-73 0-40-33-73-73-73-41 0-73 33-73 73 0 40 32 73 73 73z m-89 206c0 50 39 89 89 89 49 0 89-39 89-89s-40-89-89-89c-50 0-89 40-89 89z m105-161h-31v42h31v-42z m-244-459c49 0 89 40 89 89 0 49-40 89-89 89-49 0-89-40-89-89 0-49 40-89 89-89z m0 162c40 0 73-32 73-73 0-40-33-73-73-73-40 0-73 33-73 73 0 41 33 73 73 73z m-89 257c0 49 40 89 89 89 49 0 89-40 89-89s-40-89-89-89c-49 0-89 40-89 89z m105-220h-30v101h30v-101z m438 159c49 0 89 40 89 89 0 49-40 89-89 89-49 0-89-40-89-89 0-49 40-89 89-89z m0 162c40 0 73-33 73-73 0-40-33-73-73-73-40 0-73 33-73 73 0 40 33 73 73 73z m-89-357c0 49 40 89 89 89 49 0 89-40 89-89s-40-89-89-89c-49 0-89 39-89 89z m105 117h-30v49h30v-49z" horiz-adv-x="1000" />

<glyph glyph-name="scatter2" unicode="&#xe816;" d="M804 506c0 49 40 89 89 89 49 0 89-40 89-89s-40-89-89-89c-49 0-89 40-89 89z m267-513v-72h-1142v858h71v-786h1071z m-743 653c0 49 40 89 90 89 49 0 89-40 89-89s-40-89-89-89c-50 0-90 40-90 89z m-202-424c0 50 40 89 89 89 49 0 89-39 89-89s-40-89-89-89c-49 0-89 40-89 89z m454 116c0 49 40 89 89 89 49 0 89-40 89-89s-40-89-89-89c-49 0-89 40-89 89z" horiz-adv-x="1000" />

<glyph glyph-name="timeline2" unicode="&#xe818;" d="M1071-7v-72h-1142v858h71v-786h1071z m-982 146l-42 49 259 221 42-50-259-220z m0 270l-42 49 259 220 42-49-259-220z m168-41l50 41 207-254-50-41-207 254z m0 270l50 41 442-543-50-41-442 543z m207-524l-42 50 573 477 42-50-573-477z m235-18l-42 50 335 278 41-49-334-279z" horiz-adv-x="1000" />

<glyph glyph-name="data-structure-1" unicode="&#xe82f;" d="M750 650h-500c-27 0-50-23-50-50v-500c0-28 23-50 50-50h500c28 0 50 22 50 50v500c0 28-22 50-50 50z" horiz-adv-x="1000" />

<glyph glyph-name="layers" unicode="&#xe830;" d="M34 544l0 0 438-218 0 0c9-5 18-7 28-7s19 2 28 7l0 0 438 218 0 0c20 10 34 32 34 56 0 26-16 48-38 58l0 0 0 0c0 0 0 0 0 0l-437 187 0 0c-8 3-16 5-25 5s-17-2-24-5l0 0-437-187c0 0 0 0 0 0l0 0 0 0c-23-10-39-32-39-58 0-24 14-46 34-56z m904-319c-10 0-20-2-29-7l0 0-409-204-409 205 0 0c-9 4-18 6-28 6-35 0-63-28-63-62 0-25 14-46 34-56l0 0 438-219 0 0c9-4 18-7 28-7s19 3 28 7l0 0 438 219 0 0c20 10 34 31 34 56 0 34-28 62-62 62z m0 219c-10 0-20-3-29-7l0 0-409-204-409 204 0 0c-9 4-18 7-28 7-35 0-63-28-63-63 0-24 14-45 34-55l0 0 438-219 0 0c9-4 18-7 28-7s19 3 28 7l0 0 438 219 0 0c20 10 34 31 34 55 0 35-28 63-62 63z" horiz-adv-x="1000" />

<glyph glyph-name="tick" unicode="&#xe831;" d="M875 663c-17 0-33-7-44-19l-456-456-206 206c-11 12-26 19-44 19-34 0-62-29-62-63 0-17 6-33 18-44l250-250c11-12 27-18 44-18s33 6 44 18l500 500c12 11 19 27 19 44 0 34-29 63-63 63z" horiz-adv-x="1000" />

<glyph glyph-name="back" unicode="&#xe832;" d="M250 163c-69 0-125-57-125-125s56-126 125-126 125 57 125 126-56 125-125 125z m438 437h-475l81 81c12 11 19 27 19 44 0 34-29 63-63 63-17 0-33-7-44-19l-188-187c-11-11-18-27-18-44 0-18 7-34 18-45l188-187c11-12 27-18 44-18 34 0 63 28 63 62 0 18-7 33-19 44l-81 81h475c103 0 187-84 187-187s-84-188-187-188h-250v-125h250c172 0 312 140 312 313s-140 312-312 312z" horiz-adv-x="1000" />

<glyph glyph-name="eye-no" unicode="&#xe833;" d="M1000 352c0 1 0 1 0 1 0 0 0 1 0 1 0 0 0 0 0 1 0 1 0 1 0 1 0 0 0 0 0 0-1 9-5 17-11 23-30 39-66 75-103 107l-197-141c-3-101-85-181-186-181-20 0-38 4-55 9l-130-92c28-12 56-22 86-29 60-14 121-15 182-3 55 10 109 34 158 61 79 44 150 104 212 172 11 12 23 26 33 39 5 6 9 13 10 22 0 0 0 0 0 0 0 1 0 1 0 1 0 1 0 1 0 2 0 0 0 0 0 0 0 1 0 1 0 2 0 0 0 1 0 1 1 2 1 2 1 3z m-27 261c16 11 27 28 27 50 0 34-28 62-62 62-14 0-26-5-36-12l-1 0-167-119c-43 24-88 43-135 54-60 15-121 15-182 3-55-11-109-33-158-62-78-43-150-104-211-171-12-13-24-26-34-39-14-18-14-40 0-58 32-41 69-78 108-112 11-10 24-18 35-27l-131-94 1 0c-16-12-27-29-27-50 0-35 28-63 63-63 13 0 25 5 35 12l1 0 875 625-1 1z m-650-313c-5 16-7 33-7 50 0 103 83 186 187 186 38 0 74-13 103-33l-283-203z" horiz-adv-x="1000" />

<glyph glyph-name="table" unicode="&#xe834;" d="M938 788h-875c-38 0-63-32-63-63v-750c0-38 25-63 63-63h875c37 0 62 25 62 63v750c0 31-25 63-62 63l0 0z m-563-750h-250v125h250v-125l0 0z m0 187h-250v125h250v-125l0 0z m0 188h-250v125h250v-125l0 0z m500-375h-437v125h437v-125l0 0z m0 187h-437v125h437v-125l0 0z m0 188h-437v125h437v-125l0 0z" horiz-adv-x="1000" />

<glyph glyph-name="row-layout" unicode="&#xe835;" d="M938 788h-875c-38 0-63-32-63-63v-750c0-38 25-63 63-63h875c37 0 62 25 62 63v750c0 31-25 63-62 63l0 0z m-63-750h-750v125h750v-125l0 0z m0 187h-750v125h750v-125l0 0z m0 188h-750v125h750v-125l0 0z" horiz-adv-x="1000" />

<glyph glyph-name="section-layout" unicode="&#xe836;" d="M63 663h875c34 0 62 28 62 62s-28 63-62 63h-875c-35 0-63-29-63-63s28-62 63-62z m875-625h-875c-35 0-63-29-63-63s28-63 63-63h875c34 0 62 29 62 63s-28 63-62 63z m0 250h-875c-35 0-63-29-63-63s28-62 63-62h875c34 0 62 28 62 62s-28 63-62 63z m0 250h-875c-35 0-63-29-63-63s28-62 63-62h875c34 0 62 28 62 62s-28 63-62 63z" horiz-adv-x="1000" />

<glyph glyph-name="column-layout" unicode="&#xe837;" d="M938 788h-875c-35 0-63-29-63-63v-750c0-34 28-63 63-63h875c34 0 62 29 62 63v750c0 34-28 63-62 63z m-688-750h-125v625h125v-625z m188 0h-125v625h125v-625z m437 0h-375v625h375v-625z" horiz-adv-x="1000" />

<glyph glyph-name="circle-arrow-down" unicode="&#xe838;" d="M688 413c-18 0-34-7-45-19l-80-81v225c0 34-29 62-63 62s-62-28-62-62v-225l-81 81c-11 12-27 19-44 19-35 0-63-29-63-63 0-17 7-33 18-44l188-188c11-11 27-18 44-18s33 7 44 18l188 188c11 11 18 27 18 44 0 34-28 63-62 63z m-188 437c-276 0-500-224-500-500s224-500 500-500 500 224 500 500-224 500-500 500z m0-875c-207 0-375 168-375 375s168 375 375 375 375-168 375-375-168-375-375-375z" horiz-adv-x="1000" />

<glyph glyph-name="info-sign" unicode="&#xe839;" d="M500 850c-276 0-500-224-500-500 0-276 224-500 500-500s500 224 500 500c0 276-224 500-500 500z m-50-200h100v-100h-100v100z m200-600h-300v50h100v350h-50v50h150v-400h100v-50z" horiz-adv-x="1000" />

<glyph glyph-name="help" unicode="&#xe83a;" d="M500 850c-276 0-500-224-500-500s224-500 500-500 500 224 500 500-224 500-500 500z m63-812h-125v125h125v-125z m120 407c-9-20-22-40-39-61l-66-86c-7-9-15-18-17-26-3-8-6-19-6-33v-14h-110v70c0 0 3 32 13 44l67 90c14 17 22 31 28 43 5 12 7 24 7 36 0 19-6 35-17 47-12 12-28 18-48 18-21 0-37-7-49-19-12-11-20-28-25-50-2-7-6-10-12-9l-106 16c-8 0-10 5-9 12 7 51 29 91 64 121 36 30 83 45 141 45 29 0 56-5 80-14 25-9 45-21 63-37 17-15 31-34 41-55 9-22 13-45 13-70s-4-47-13-68z" horiz-adv-x="1000" />

<glyph glyph-name="chevron-down" unicode="&#xe83b;" d="M800 550c-14 0-26-5-35-14l-265-265-264 265c-9 9-22 14-36 14-27 0-50-22-50-50 0-14 6-26 15-35l300-300c9-9 21-15 35-15s27 6 36 15l300 300c9 9 14 21 14 35 0 28-22 50-50 50z" horiz-adv-x="1000" />

<glyph glyph-name="chevron-up" unicode="&#xe83c;" d="M836 236l-300 300c-9 9-22 14-36 14s-26-5-35-14l-300-300c-9-9-15-22-15-36 0-27 23-50 50-50 14 0 27 6 36 15l264 265 265-265c9-9 21-15 35-15 28 0 50 23 50 50 0 14-5 27-14 36z" horiz-adv-x="1000" />

<glyph glyph-name="chevron-left" unicode="&#xe83d;" d="M463 350l206 206c12 11 19 27 19 44 0 34-29 63-63 63-17 0-33-7-44-19l-250-250c-12-11-18-26-18-44 0-17 6-33 18-44l250-250c11-12 27-18 44-18 34 0 63 28 63 62 0 18-7 33-19 44l-206 206z" horiz-adv-x="1000" />

<glyph glyph-name="chevron-right" unicode="&#xe83e;" d="M669 394l-250 250c-11 12-26 19-44 19-34 0-62-29-62-63 0-17 6-33 18-44l206-206-206-206c-12-11-18-26-18-44 0-34 28-62 62-62 18 0 33 6 44 18l250 250c12 11 19 27 19 44 0 18-7 33-19 44z" horiz-adv-x="1000" />

<glyph glyph-name="sort-asc" unicode="&#xe83f;" d="M500 413h188c34 0 62 28 62 62 0 34-28 63-62 63h-188c-34 0-62-29-62-63 0-34 28-62 62-62z m0 250h63c34 0 62 28 62 62 0 34-28 63-62 63h-63c-34 0-62-29-62-63 0-34 28-62 62-62z m0-500h313c34 0 62 28 62 62 0 34-28 63-62 63h-313c-34 0-62-29-62-63 0-34 28-62 62-62z m-187-63c-18 0-34-7-45-18l-18-19v225c0 34-28 62-62 62s-63-28-63-62v-225l-18 18c-11 12-27 19-44 19-35 0-63-28-63-62 0-18 7-34 18-45l125-125c11-11 27-18 45-18s33 7 44 18l125 125c11 11 18 27 18 45 0 34-28 62-62 62z m625-62h-438c-34 0-62-29-62-63 0-34 28-63 62-63h438c34 0 62 29 62 63 0 34-28 63-62 63z" horiz-adv-x="1000" />

<glyph glyph-name="sort-desc" unicode="&#xe840;" d="M313 100c-18 0-34-7-45-18l-18-19v225c0 34-28 62-62 62s-63-28-63-62v-225l-18 18c-11 12-27 19-44 19-35 0-63-28-63-62 0-18 7-34 18-45l125-125c11-11 27-18 45-18s33 7 44 18l125 125c11 11 18 27 18 45 0 34-28 62-62 62z m250-62h-63c-34 0-62-29-62-63 0-34 28-63 62-63h63c34 0 62 29 62 63 0 34-28 63-62 63z m250 500h-313c-34 0-62-29-62-63 0-34 28-62 62-62h313c34 0 62 28 62 62 0 34-28 63-62 63z m-125-250h-188c-34 0-62-29-62-63 0-34 28-62 62-62h188c34 0 62 28 62 62 0 34-28 63-62 63z m250 500h-438c-34 0-62-29-62-63 0-34 28-62 62-62h438c34 0 62 28 62 62 0 34-28 63-62 63z" horiz-adv-x="1000" />

<glyph glyph-name="arrow-left" unicode="&#xe842;" d="M900 400h-679l214 215c10 9 15 21 15 35 0 28-22 50-50 50-14 0-26-5-35-14l-300-300c-9-9-15-22-15-36 0-14 6-26 15-35l300-300c9-9 21-15 35-15 28 0 50 23 50 50 0 14-5 27-14 36l-215 214h679c28 0 50 23 50 50 0 28-22 50-50 50z" horiz-adv-x="1000" />

<glyph glyph-name="arrow-right" unicode="&#xe843;" d="M936 386l-300 300c-9 9-22 14-36 14-27 0-50-22-50-50 0-14 6-26 15-35l215-215h-680c-27 0-50-22-50-50 0-27 23-50 50-50h680l-215-214c-9-9-15-22-15-36 0-27 23-50 50-50 14 0 27 6 36 15l300 300c9 9 14 21 14 35 0 14-5 27-14 36z" horiz-adv-x="1000" />

<glyph glyph-name="search" unicode="&#xe844;" d="M978-22l-247 247c44 65 69 142 69 225 0 221-179 400-400 400s-400-179-400-400 179-400 400-400c84 0 161 26 225 69l247-247c14-14 33-22 53-22 42 0 75 33 75 75 0 20-8 39-22 53z m-578 172c-165 0-300 135-300 300s135 300 300 300 300-134 300-300-134-300-300-300z" horiz-adv-x="1000" />

<glyph glyph-name="caret-down" unicode="&#xe845;" d="M800 500c0 28-22 50-50 50h-500c-27 0-50-22-50-50 0-12 5-23 12-31l0-1 250-300 0 1c10-11 23-19 38-19s29 8 38 19l1-1 250 300-1 1c7 8 12 19 12 31z" horiz-adv-x="1000" />

<glyph glyph-name="caret-up" unicode="&#xe846;" d="M788 232l1 0-250 300-1 0c-9 11-22 18-38 18s-28-7-38-18l0 0-250-300 0 0c-7-9-12-20-12-32 0-27 23-50 50-50h500c28 0 50 23 50 50 0 12-5 23-12 32z" horiz-adv-x="1000" />

<glyph glyph-name="import-1" unicode="&#xe847;" d="M465 65c9-9 21-15 35-15s27 6 36 15l250 250c9 9 14 21 14 35 0 28-22 50-50 50-14 0-26-5-35-14l-165-165v579c0 28-22 50-50 50s-50-22-50-50v-579l-164 165c-9 9-22 14-36 14-27 0-50-22-50-50 0-14 6-26 15-35l250-250z m485 85c-27 0-50-22-50-50v-150h-800v150c0 28-22 50-50 50s-50-22-50-50v-200c0-28 23-50 50-50h900c28 0 50 22 50 50v200c0 28-22 50-50 50z" horiz-adv-x="1000" />

<glyph glyph-name="create" unicode="&#xe848;" d="M687 413h-125v125c0 35-28 63-63 63s-62-28-62-63v-125h-125c-34 0-63-28-63-62s29-63 63-63h125v-125c0-34 28-62 62-62s63 28 63 62v125h125c34 0 62 28 62 63s-28 62-62 62z m-188 438c-276 0-500-224-500-500s224-500 500-500 500 223 500 500-223 500-500 500z m0-875c-206 0-375 168-375 375s169 375 375 375 375-168 375-375-167-375-375-375z" horiz-adv-x="1000" />

<glyph glyph-name="tick-circled" unicode="&#xe84b;" d="M500-150c-276 0-500 224-500 500s224 500 500 500 500-224 500-500-224-500-500-500z m250 688c-17 0-33-7-44-19l-268-268-144 143c-11 12-26 19-44 19-34 0-62-29-62-63 0-17 6-33 18-44l187-188c11-11 27-18 45-18s33 7 44 18l312 313c12 11 19 27 19 44 0 34-29 63-63 63z" horiz-adv-x="1000" />

<glyph glyph-name="ban-circled" unicode="&#xe84c;" d="M500 850c-276 0-500-224-500-500s224-500 500-500 500 224 500 500-224 500-500 500z m188-562h-375c-35 0-63 28-63 62 0 34 28 63 63 63h375c34 0 62-29 62-63 0-34-28-62-62-62z" horiz-adv-x="1000" />

<glyph glyph-name="chevron-left-first" unicode="&#xe856;" d="M544 350l206 206c13 13 19 25 19 44 0 31-25 63-63 63-18 0-31-7-43-19l-250-250c-13-13-19-25-19-44 0-19 6-31 19-44l250-250c12-12 25-18 43-18 38 0 63 25 63 62 0 19-6 31-19 44l-206 206z m-306-312c-32 0-63 25-63 62v500c0 31 25 63 63 63s62-25 62-63v-500c-6-37-31-62-62-62z" horiz-adv-x="1000" />

<glyph glyph-name="chevron-right-last" unicode="&#xe857;" d="M594 394l-250 250c-13 12-31 19-44 19-37 0-62-32-62-63 0-19 6-31 18-44l200-206-206-206c-12-13-19-25-19-44 0-37 25-62 63-62 19 0 31 6 44 18l250 250c12 13 25 25 25 44 0 19-13 31-19 44z m169-356c-32 0-63 25-63 62v500c0 31 25 63 63 63s62-25 62-63v-500c0-37-25-62-62-62z" horiz-adv-x="1000" />

<glyph glyph-name="more" unicode="&#xe858;" d="M125 475c69 0 125-56 125-125s-56-125-125-125-125 56-125 125 56 125 125 125z m750 0c69 0 125-56 125-125s-56-125-125-125-125 56-125 125 56 125 125 125z m-375 0c69 0 125-56 125-125s-56-125-125-125-125 56-125 125 56 125 125 125z" horiz-adv-x="1000" />

<glyph glyph-name="dot" unicode="&#xe859;" d="M500 538c106 0 188-82 188-188s-82-187-188-187-187 81-187 187 81 188 187 188z" horiz-adv-x="1000" />

<glyph glyph-name="error" unicode="&#xe881;" d="M500 850c-276 0-500-224-500-500 0-276 224-500 500-500s500 224 500 500c0 276-224 500-500 500z m50-800h-100v100h100v-100z m0 150h-100v450h100v-450z" horiz-adv-x="1000" />

<glyph glyph-name="bookmark" unicode="&#xe882;" d="M778 850h-556c-61 0-111-50-111-111v-889l389 167 389-167v889c0 61-50 111-111 111z" horiz-adv-x="1000" />

<glyph glyph-name="bookmark-outline" unicode="&#xe883;" d="M778 850h-556c-61 0-111-50-111-111v-889l389 167 389-167v889c0 61-50 111-111 111z m0-833l-278 122-278-122v722h556v-722z" horiz-adv-x="1000" />

<glyph glyph-name="filter" unicode="&#xe884;" d="M900 800h-800c-27 0-50-22-50-50 0-14 6-26 15-35l285-285v-480c0-28 23-50 50-50 14 0 27 5 36 14l200 201c9 9 14 21 14 35v280l286 285c9 9 14 21 14 35 0 28-22 50-50 50z" horiz-adv-x="1000" />
</font>
</defs>
</svg>
